<?xml version="1.0" encoding="UTF-8"?>
<svg id="Layer_2" data-name="Layer 2" xmlns="http://www.w3.org/2000/svg" viewBox="0 0 832.03 141.04">
  <defs>
    <style>
      .cls-1 {
        fill: #134dd1;
      }

      .cls-1, .cls-2 {
        stroke-width: 0px;
      }

      .cls-2 {
        fill: #1a2235;
      }
    </style>
  </defs>
  <g id="Group_86470" data-name="Group 86470">
    <g>
      <path id="Path_130903" data-name="Path 130903" class="cls-2" d="M828.64,78.24c-.78-1.44-1.73-2.79-2.83-4-.69-.77-1.44-1.48-2.23-2.15l2.34-2.65h0c.32-.37.66-.76,1.03-1.25.1-.13.19-.25.27-.36l.07-.09c3.07-4.09,4.73-9.06,4.74-14.17v-6.16c.03-5.35-1.69-10.57-4.89-14.85-1.25-1.64-2.67-3.15-4.22-4.5-.22-.19-.44-.37-.67-.54l-.29-.23c-.34-.28-.69-.56-1.06-.84l-.19-.14c-1.94-1.28-3.95-2.45-6.03-3.5l-.1-.05c-4.1-1.69-8.47-2.65-12.9-2.85l-2.55-.08h-43.3c-1.89,0-3.42,1.53-3.42,3.42v15.72c0,1.89,1.53,3.42,3.42,3.43l43.09.03c3.44-.06,6.63,1.81,8.25,4.85.61,1.21.93,2.55.92,3.9-.03,2.01-.64,3.97-1.75,5.64-1.8,2.77-4.9,4.41-8.2,4.36h-24.93c-1.89,0-3.42,1.54-3.42,3.43v15.57c0,1.89,1.53,3.42,3.41,3.43l11.8.08h.11s13.81.01,13.81.01c3.45-.08,6.65,1.8,8.25,4.85.61,1.21.93,2.55.92,3.9-.03,2.01-.64,3.97-1.75,5.64-1.79,2.73-4.84,4.37-8.1,4.36h-42.67c-1.73.17-3.06,1.63-3.07,3.37v15.68c0,1.89,1.53,3.42,3.42,3.43h45.77c4.46-.16,8.84-1.19,12.91-3.03,1.4-.62,2.75-1.35,4.04-2.17l.06-.05c.42-.28.84-.56,1.25-.86.38-.27.74-.55,1.09-.83l.7-.57c2.61-2.18,4.85-4.76,6.64-7.65,2.4-3.92,3.65-8.43,3.63-13.03v-6.31c0-4.3-1.17-8.51-3.38-12.19"/>
      <path id="Path_130904" data-name="Path 130904" class="cls-1" d="M71.19,111.6c4.08-3.26,7.96-6.77,11.6-10.52,2.14-2.2,4.19-4.47,6.16-6.82,3.31-3.95,6.36-8.11,9.14-12.44,2.19-3.41,4.21-6.92,6.07-10.55,2.1-4.11,3.97-8.33,5.6-12.65.32-.84-.09-1.79-.93-2.13-3.81-1.55-7.71-2.87-11.69-3.94-.83-.21-1.68.23-1.98,1.03-1.7,4.44-3.69,8.76-5.95,12.94-.87,1.6-1.77,3.17-2.71,4.72-2.73,4.48-5.79,8.76-9.14,12.8-1.95,2.35-3.99,4.62-6.14,6.8-3.62,3.67-7.5,7.08-11.61,10.21-2.03,1.54-4.11,3.02-6.26,4.43-.75.5-1.76.37-2.37-.29-1.75-1.88-3.44-3.8-5.06-5.77-3.3-3.98-6.37-8.15-9.18-12.49-2.44-3.76-4.7-7.65-6.75-11.64-2.36-4.6-4.45-9.33-6.26-14.17-1.08-2.9-2.06-5.84-2.94-8.81-1.5-5.08-2.69-10.24-3.57-15.46-.53-3.12-.94-6.27-1.25-9.45-.42-4.33-.63-8.71-.63-13.12,0-.7,0-1.4.02-2.1,0-.48-.38-.88-.86-.89-.12,0-.23.02-.34.06-4.33,1.79-8.56,3.77-12.67,5.94C.54,17.78-.03,18.77,0,19.83c.19,5.11.64,10.21,1.35,15.28.45,3.26,1.01,6.49,1.67,9.7,1.11,5.36,2.51,10.65,4.2,15.85.98,3.03,2.07,6.03,3.26,8.99,1.96,4.92,4.19,9.74,6.67,14.42,1.74,3.27,3.6,6.47,5.57,9.62,2.83,4.48,5.89,8.81,9.18,12.96,1.96,2.47,4,4.9,6.12,7.26,1.8,2,3.65,3.96,5.56,5.88,1.51,1.51,3.04,2.98,4.61,4.41.86.78,2.11.93,3.13.39,1.42-.75,2.84-1.53,4.24-2.34,2.76-1.59,5.44-3.28,8.05-5.06,2.61-1.78,5.13-3.64,7.56-5.57"/>
      <path id="Path_130905" data-name="Path 130905" class="cls-1" d="M127.01,10.88c-3.05-1.25-6.13-2.38-9.24-3.4-5.19-1.72-10.47-3.15-15.81-4.29-3.1-.65-6.21-1.21-9.34-1.66-5.25-.76-10.54-1.25-15.85-1.44-3.71-.14-7.42-.13-11.15.01-5.3.21-10.58.7-15.83,1.48-3.12.46-6.24,1.02-9.35,1.67-2.63.56-5.25,1.18-7.87,1.88-2.06.55-4.1,1.14-6.12,1.78-1.1.35-1.87,1.36-1.91,2.52-.07,1.61-.1,3.23-.1,4.85,0,3.19.12,6.36.36,9.51.24,3.15.59,6.26,1.05,9.33.78,5.16,1.88,10.27,3.3,15.3.83,2.95,1.78,5.87,2.83,8.74,1.77,4.84,3.84,9.56,6.2,14.14,1.86,3.61,3.89,7.12,6.11,10.54,2.51,3.87,5.23,7.6,8.15,11.17.57.7,1.59.81,2.31.26,3.25-2.52,6.35-5.24,9.26-8.14.6-.61.65-1.58.1-2.24-2.99-3.69-5.73-7.56-8.21-11.61-.96-1.56-1.87-3.13-2.75-4.73-2.52-4.61-4.7-9.39-6.52-14.32-1.06-2.87-2-5.77-2.82-8.72-1.37-4.97-2.39-10.04-3.04-15.15-.33-2.52-.56-5.07-.71-7.63-.05-.9.56-1.7,1.44-1.91,2.5-.57,5.01-1.07,7.52-1.49,5.1-.86,10.25-1.43,15.41-1.7,9.67-.51,19.36.04,28.91,1.66,3.03.51,6.04,1.13,9.04,1.85,5.14,1.24,10.21,2.79,15.17,4.64,2.97,1.11,5.91,2.32,8.81,3.64,3.96,1.8,7.85,3.8,11.67,6.01.61.35,1.21.7,1.8,1.06.42.25.95.11,1.2-.31.06-.1.1-.2.11-.32.62-4.65,1.02-9.3,1.21-13.95.04-1.06-.53-2.04-1.46-2.54-4.52-2.39-9.16-4.56-13.9-6.48"/>
      <path id="Path_130906" data-name="Path 130906" class="cls-1" d="M125.09,36.86c-2.83-1.36-5.7-2.62-8.61-3.75-4.86-1.91-9.85-3.51-14.91-4.79-2.95-.75-5.93-1.39-8.93-1.91-5.08-.89-10.2-1.46-15.35-1.7-4.06-.2-8.14-.19-12.23.02-4.61.24-9.2.73-13.75,1.48-.89.15-1.5.98-1.38,1.87.56,4.07,1.38,8.1,2.44,12.07.23.82,1.04,1.34,1.88,1.2,4.69-.74,9.43-1.18,14.18-1.31.97-.03,1.95-.04,2.92-.04.86,0,1.71.01,2.57.03,5.25.12,10.48.63,15.66,1.52,2.99.51,5.96,1.15,8.91,1.92,4.99,1.3,9.89,2.95,14.65,4.95,2.35.98,4.67,2.05,6.96,3.2.81.41,1.21,1.34.94,2.2-.75,2.45-1.58,4.87-2.47,7.26-1.8,4.85-3.88,9.59-6.23,14.19-2.03,4-4.27,7.89-6.7,11.66-2.8,4.34-5.86,8.52-9.15,12.5-1.97,2.39-4.02,4.7-6.16,6.95-3.65,3.83-7.52,7.45-11.61,10.82-2.44,2.02-4.96,3.95-7.56,5.81-3.54,2.53-7.22,4.9-11.03,7.1-.61.35-1.22.69-1.83,1.03-.42.23-.58.76-.35,1.19.06.11.14.2.24.27,3.72,2.87,7.54,5.54,11.48,8.02.9.56,2.03.56,2.93,0,4.33-2.72,8.53-5.66,12.57-8.8,2.6-2.02,5.12-4.12,7.56-6.3,4.08-3.64,7.97-7.49,11.62-11.56,2.13-2.37,4.19-4.81,6.16-7.31,3.28-4.16,6.33-8.49,9.15-12.98,1.97-3.13,3.82-6.34,5.54-9.63,2.47-4.69,4.68-9.52,6.63-14.45,1.17-2.93,2.24-5.91,3.23-8.94.83-2.55,1.6-5.14,2.31-7.75.55-2.06,1.05-4.12,1.51-6.19.25-1.13-.24-2.29-1.23-2.9-1.36-.86-2.75-1.69-4.15-2.5-2.76-1.59-5.56-3.07-8.41-4.44"/>
      <path id="Path_130907" data-name="Path 130907" class="cls-2" d="M218.69,125.08h2.36c1.11,0,2.01-.9,2.01-2v-60.31c0-.44.36-.79.79-.79.27,0,.51.13.66.35.71,1.06,1.4,2.14,1.4,2.14l20.38,29.53c.6.9,1.05,1.2,1.8,1.2h9.51c.75,0,1.21-.3,1.8-1.2l20.39-29.53s.7-1.08,1.4-2.14c.24-.37.73-.47,1.1-.22.22.15.36.4.36.66v60.31c0,1.11.9,2.01,2.01,2.01h21.87c1.11,0,2.01-.9,2.01-2.01V21.75c0-1.11-.9-2.01-2.01-2.01h-23.87c-.62,0-1.19.35-1.48.9l-25.58,39.43-1.99,2.79c-.45.3-.6.3-.75.3s-.3,0-.75-.3l-1.99-2.79-25.58-39.44c-.28-.55-.85-.9-1.48-.9h0s-23.88,0-23.88,0c-1.11,0-2.01.9-2.01,2h0v101.33c0,1.11.9,2.01,2.01,2.01h19.51Z"/>
      <path id="Path_130908" data-name="Path 130908" class="cls-2" d="M610.86,75.26l-1.71-2.11c-.3-.45-.3-.6-.3-.75s0-.3.3-.75l1.72-2.11,40.07-48.01c.39-.47.32-1.16-.15-1.55-.2-.16-.44-.25-.7-.25h-25.89c-1.06,0-2.07.48-2.73,1.31l-32.42,38.84c-.57.68-1.41,1.07-2.29,1.08h-4.8c-.72,0-1.3-.58-1.3-1.29V21.74c0-1.11-.9-2.01-2-2.01h-21.88c-1.11,0-2.01.9-2.01,2h0v101.33c0,1.11.9,2.01,2.01,2.01h21.87c1.11,0,2.01-.9,2.01-2.01v-37.93c0-.72.58-1.3,1.3-1.3h5.92c.99,0,1.93.45,2.56,1.23l31.05,38.7c.66.83,1.67,1.31,2.73,1.31h25.87c.61,0,1.1-.5,1.1-1.1,0-.25-.09-.5-.25-.7l-40.06-48.01Z"/>
      <path id="Path_130909" data-name="Path 130909" class="cls-2" d="M432.89,123.29l-43.6-102.29c-.33-.77-1.09-1.27-1.92-1.27h-22.46c-.84,0-1.6.5-1.92,1.27l-43.59,102.29c-.28.65.03,1.41.68,1.68.16.07.33.1.5.1h25.64c.97,0,1.85-.6,2.19-1.51l6.97-18.48c.22-.58.77-.96,1.38-.96h38.78c.62,0,1.17.38,1.38.96l6.97,18.48c.34.91,1.22,1.51,2.19,1.51h25.64c.71,0,1.28-.58,1.28-1.29,0-.17-.03-.34-.1-.5M373.3,57.51l2.07-5.05c.3-.15.45-.3.75-.3h.01c.3,0,.45.15.75.3l2.07,5.05,8.51,22.55c.17.46-.06.97-.52,1.15-.1.04-.21.06-.31.06h-21c-.49,0-.89-.39-.89-.88,0-.11.02-.22.06-.32l8.5-22.55Z"/>
      <path id="Path_130910" data-name="Path 130910" class="cls-2" d="M741.35,82.11h-12.76c-.92,0-1.66-.74-1.66-1.66v-16.27c0-1.12-.91-2.03-2.03-2.03h-10c-.98,0-1.91.44-2.54,1.19l-15.23,18.18c-.32.38-.78.59-1.27.59h-16.74c-.5,0-.96-.22-1.28-.6l-5.12-6.19c-.52-.62-.52-1.51,0-2.13l43.15-51.51c.39-.47.33-1.16-.14-1.55-.2-.17-.45-.26-.71-.26h-26.4c-.98,0-1.91.44-2.54,1.19l-43.6,52.05c-.52.62-.52,1.51,0,2.13l23.94,28.91c.63.76,1.57,1.2,2.56,1.2h34.73v17.55c0,1.12.91,2.03,2.03,2.03h19.19c1.12,0,2.03-.91,2.03-2.03v-17.55h14.4c1.12,0,2.03-.91,2.03-2.03v-19.19c0-1.12-.91-2.03-2.03-2.03"/>
      <path id="Path_130911" data-name="Path 130911" class="cls-2" d="M539.13,123.35h0l-22.63-32.35c-.36-.53-.23-1.25.3-1.61.05-.03.1-.06.15-.09,3.65-1.83,6.94-4.31,9.71-7.31,3.42-3.65,5.92-8.06,7.32-12.86.77-2.32,1.12-4.77,1.03-7.21v-9.88c0-17.97-17.67-32.3-34.7-32.3h-55.33c-1.1,0-2,.89-2.01,1.99,0,0,0,0,0,0v101.34c0,1.1.89,2,1.99,2.01,0,0,0,0,.01,0h21.86c1.11,0,2.01-.9,2.01-2.01h0v-27.94c0-.63.51-1.14,1.13-1.14h17.19c.74,0,1.43.35,1.87.95l20.57,28.33.26.36c.66.91,1.71,1.45,2.84,1.45h25.52c.61,0,1.1-.49,1.1-1.1,0-.23-.07-.45-.2-.63M506.35,63.66c-2.78,4.23-7.52,6.75-12.58,6.7h-23.85c-.61,0-1.1-.49-1.1-1.1h0v-25.72c0-1.16.94-2.11,2.11-2.11h23.84c5.34-.09,10.28,2.82,12.79,7.54.96,1.9,1.45,3.99,1.44,6.11-.04,3.06-.96,6.03-2.66,8.58"/>
    </g>
  </g>
</svg>