<svg version="1.2" xmlns="http://www.w3.org/2000/svg" viewBox="0 0 833 142" width="833" height="142">
	<style>
		.s0 { fill: #134dd1 } 
		.s1 { fill: #ffffff } 
	</style>
	<g id="Group_86470">
		<g>
			<path id="Path_130904" class="s0" d="m71.19 111.6q6.13-4.89 11.6-10.52 3.21-3.3 6.16-6.82 4.97-5.94 9.14-12.44 3.28-5.11 6.07-10.55 3.15-6.17 5.6-12.65c0.32-0.84-0.09-1.79-0.93-2.13q-5.72-2.33-11.69-3.94c-0.83-0.21-1.68 0.23-1.98 1.03q-2.56 6.67-5.95 12.94-1.3 2.4-2.71 4.72-4.11 6.73-9.14 12.8-2.92 3.53-6.14 6.8-5.44 5.51-11.61 10.21-3.04 2.31-6.26 4.43c-0.75 0.5-1.76 0.37-2.37-0.29q-2.63-2.82-5.06-5.77-4.96-5.98-9.18-12.49-3.67-5.65-6.75-11.64-3.54-6.91-6.26-14.17-1.62-4.35-2.94-8.81-2.25-7.63-3.57-15.46-0.79-4.68-1.25-9.45-0.63-6.5-0.63-13.12-0.01-1.05 0.02-2.1c0-0.48-0.38-0.88-0.86-0.89q-0.18 0-0.34 0.06-6.5 2.68-12.67 5.94c-0.95 0.49-1.52 1.48-1.49 2.54q0.29 7.67 1.35 15.28 0.68 4.89 1.67 9.7 1.66 8.05 4.2 15.85 1.47 4.55 3.26 8.99 2.95 7.39 6.67 14.42 2.61 4.9 5.57 9.62 4.24 6.73 9.18 12.96 2.94 3.71 6.12 7.26 2.7 3 5.56 5.88 2.26 2.27 4.61 4.41c0.86 0.78 2.11 0.93 3.13 0.39q2.13-1.12 4.24-2.34 4.14-2.39 8.05-5.06 3.91-2.67 7.56-5.57"/>
			<path id="Path_130905" class="s0" d="m127.01 10.88q-4.58-1.87-9.24-3.4-7.79-2.58-15.81-4.29-4.65-0.98-9.34-1.66-7.88-1.15-15.85-1.44-5.56-0.21-11.15 0.01-7.95 0.31-15.83 1.48-4.68 0.69-9.35 1.67-3.94 0.83-7.87 1.88-3.09 0.82-6.12 1.78c-1.1 0.35-1.87 1.36-1.91 2.52q-0.1 2.42-0.1 4.85 0 4.79 0.36 9.51 0.36 4.72 1.05 9.33 1.17 7.75 3.3 15.3 1.25 4.43 2.83 8.74 2.66 7.26 6.2 14.14 2.78 5.41 6.11 10.54 3.77 5.81 8.15 11.17c0.57 0.7 1.59 0.81 2.31 0.26q4.88-3.78 9.26-8.14c0.6-0.61 0.65-1.58 0.1-2.24q-4.49-5.53-8.21-11.61-1.44-2.33-2.75-4.73-3.79-6.92-6.52-14.32-1.59-4.3-2.82-8.72-2.06-7.47-3.04-15.15-0.49-3.78-0.71-7.63c-0.05-0.9 0.56-1.7 1.44-1.91q3.75-0.86 7.52-1.49 7.66-1.29 15.41-1.7c9.67-0.51 19.36 0.04 28.91 1.66q4.54 0.77 9.04 1.85 7.72 1.86 15.17 4.64 4.46 1.66 8.81 3.64 5.94 2.7 11.67 6.01 0.92 0.52 1.8 1.06c0.42 0.25 0.95 0.11 1.2-0.31q0.09-0.14 0.11-0.32 0.93-6.97 1.21-13.95c0.04-1.06-0.53-2.04-1.46-2.54q-6.78-3.59-13.9-6.48"/>
			<path id="Path_130906" class="s0" d="m125.09 36.86q-4.25-2.05-8.61-3.75-7.3-2.87-14.91-4.79-4.43-1.13-8.93-1.91-7.62-1.34-15.35-1.7-6.09-0.3-12.23 0.02-6.92 0.36-13.75 1.48c-0.89 0.15-1.5 0.98-1.38 1.87q0.85 6.11 2.44 12.07c0.23 0.82 1.04 1.34 1.88 1.2q7.05-1.11 14.18-1.31 1.46-0.04 2.92-0.04 1.29 0 2.57 0.03 7.88 0.18 15.66 1.52 4.48 0.77 8.91 1.92 7.5 1.95 14.65 4.95 3.52 1.47 6.96 3.2c0.81 0.41 1.21 1.34 0.94 2.2q-1.13 3.68-2.47 7.26-2.7 7.28-6.23 14.19-3.05 6-6.7 11.66-4.21 6.52-9.15 12.5-2.95 3.58-6.16 6.95-5.48 5.76-11.61 10.82-3.66 3.03-7.56 5.81-5.31 3.8-11.03 7.1-0.92 0.52-1.83 1.03c-0.42 0.23-0.58 0.76-0.35 1.19q0.09 0.17 0.24 0.27 5.57 4.3 11.48 8.02c0.9 0.56 2.03 0.56 2.93 0q6.5-4.08 12.57-8.8 3.9-3.03 7.56-6.3 6.13-5.46 11.62-11.56 3.2-3.56 6.16-7.31 4.92-6.24 9.15-12.98 2.96-4.69 5.54-9.63 3.7-7.04 6.63-14.45 1.75-4.39 3.23-8.94 1.25-3.83 2.31-7.75 0.82-3.09 1.51-6.19c0.25-1.13-0.24-2.29-1.23-2.9q-2.04-1.29-4.15-2.5-4.14-2.38-8.41-4.44"/>
			<path id="Path_130907" class="s1" d="m218.69 125.08h2.36c1.11 0 2.01-0.9 2.01-2v-60.31c0-0.44 0.36-0.79 0.79-0.79 0.27 0 0.51 0.13 0.66 0.35 0.71 1.06 1.4 2.14 1.4 2.14l20.38 29.53c0.6 0.9 1.05 1.2 1.8 1.2h9.51c0.75 0 1.21-0.3 1.8-1.2l20.39-29.53c0 0 0.7-1.08 1.4-2.14 0.24-0.37 0.73-0.47 1.1-0.22 0.22 0.15 0.36 0.4 0.36 0.66v60.31c0 1.11 0.9 2.01 2.01 2.01h21.87c1.11 0 2.01-0.9 2.01-2.01v-101.33c0-1.11-0.9-2.01-2.01-2.01h-23.87c-0.62 0-1.19 0.35-1.48 0.9l-25.58 39.43-1.99 2.79c-0.45 0.3-0.6 0.3-0.75 0.3-0.15 0-0.3 0-0.75-0.3l-1.99-2.79-25.58-39.44c-0.28-0.55-0.85-0.9-1.48-0.9h-23.88c-1.11 0-2.01 0.9-2.01 2v101.33c0 1.11 0.9 2.01 2.01 2.01 0 0 19.51 0 19.51 0.01z"/>
			<path id="Path_130909" class="s1" d="m432.89 123.29l-43.6-102.29c-0.33-0.77-1.09-1.27-1.92-1.27h-22.46c-0.84 0-1.6 0.5-1.92 1.27l-43.59 102.29c-0.28 0.65 0.03 1.41 0.68 1.68q0.24 0.1 0.5 0.1h25.64c0.97 0 1.85-0.6 2.19-1.51l6.97-18.48c0.22-0.58 0.77-0.96 1.38-0.96h38.78c0.62 0 1.17 0.38 1.38 0.96l6.97 18.48c0.34 0.91 1.22 1.51 2.19 1.51h25.64c0.71 0 1.28-0.58 1.28-1.29q0-0.26-0.1-0.5m-59.6-65.77l2.07-5.05c0.3-0.15 0.45-0.3 0.75-0.3h0.01c0.3 0 0.45 0.15 0.75 0.3l2.07 5.05 8.51 22.55c0.17 0.46-0.06 0.97-0.52 1.15q-0.16 0.06-0.31 0.06h-21c-0.49 0-0.89-0.39-0.89-0.88q0-0.17 0.06-0.32l8.5-22.55z"/>
			<path id="Path_130911" class="s1" d="m539.13 123.35l-22.63-32.35c-0.36-0.53-0.23-1.25 0.3-1.61q0.08-0.04 0.15-0.09c3.65-1.83 6.94-4.31 9.71-7.31 3.42-3.65 5.92-8.06 7.32-12.86 0.77-2.32 1.12-4.77 1.03-7.21v-9.88c0-17.97-17.67-32.3-34.7-32.3h-55.33c-1.1 0-2 0.89-2.01 1.99v101.34c0 1.1 0.89 2 1.99 2.01q0 0 0.01 0h21.86c1.11 0 2.01-0.9 2.01-2.01v-27.94c0-0.63 0.51-1.14 1.13-1.14h17.19c0.74 0 1.43 0.35 1.87 0.95l20.57 28.33 0.26 0.36c0.66 0.91 1.71 1.45 2.84 1.45h25.52c0.61 0 1.1-0.49 1.1-1.1q-0.01-0.35-0.19-0.63zm-32.78-59.69c-2.78 4.23-7.52 6.75-12.58 6.7h-23.85c-0.61 0-1.1-0.49-1.1-1.1v-25.72c0-1.16 0.94-2.11 2.11-2.11h23.84c5.34-0.09 10.28 2.82 12.79 7.54 0.96 1.9 1.45 3.99 1.44 6.11-0.04 3.06-0.96 6.03-2.66 8.58"/>
			<path id="Path_130908" class="s1" d="m610.86 75.26l-1.71-2.11c-0.3-0.45-0.3-0.6-0.3-0.75 0-0.15 0-0.3 0.3-0.75l1.72-2.11 40.07-48.01c0.39-0.47 0.32-1.16-0.15-1.55q-0.31-0.24-0.7-0.25h-25.89c-1.06 0-2.07 0.48-2.73 1.31l-32.42 38.84c-0.57 0.68-1.41 1.07-2.29 1.08h-4.8c-0.72 0-1.3-0.58-1.3-1.29v-37.93c0-1.11-0.9-2.01-2-2.01h-21.88c-1.11 0-2.01 0.9-2.01 2v101.33c0 1.11 0.9 2.01 2.01 2.01h21.87c1.11 0 2.01-0.9 2.01-2.01v-37.93c0-0.72 0.58-1.3 1.3-1.3h5.92c0.99 0 1.93 0.45 2.56 1.23l31.05 38.7c0.66 0.83 1.67 1.31 2.73 1.31h25.87c0.61 0 1.1-0.5 1.1-1.1q0-0.39-0.25-0.7l-40.06-48.01z"/>
			<path id="Path_130910" class="s1" d="m741.35 82.11h-12.76c-0.92 0-1.66-0.74-1.66-1.66v-16.27c0-1.12-0.91-2.03-2.03-2.03h-10c-0.98 0-1.91 0.44-2.54 1.19l-15.23 18.18c-0.32 0.38-0.78 0.59-1.27 0.59h-16.74c-0.5 0-0.96-0.22-1.28-0.6l-5.12-6.19c-0.52-0.62-0.52-1.51 0-2.13l43.15-51.51c0.39-0.47 0.33-1.16-0.14-1.55q-0.31-0.26-0.71-0.26h-26.4c-0.98 0-1.91 0.44-2.54 1.19l-43.6 52.05c-0.52 0.62-0.52 1.51 0 2.13l23.94 28.91c0.63 0.76 1.57 1.2 2.56 1.2h34.73v17.55c0 1.12 0.91 2.03 2.03 2.03h19.19c1.12 0 2.03-0.91 2.03-2.03v-17.55h14.4c1.12 0 2.03-0.91 2.03-2.03v-19.19c0-1.12-0.91-2.03-2.03-2.03"/>
			<path id="Path_130903" class="s1" d="m828.64 78.24q-1.17-2.17-2.83-4-1.04-1.15-2.23-2.15l2.34-2.65c0.32-0.37 0.66-0.76 1.03-1.25q0.15-0.2 0.27-0.36l0.07-0.09c3.07-4.09 4.73-9.06 4.74-14.17v-6.16c0.03-5.35-1.69-10.57-4.89-14.85q-1.88-2.47-4.22-4.5-0.33-0.29-0.67-0.54l-0.29-0.23q-0.51-0.42-1.06-0.84l-0.19-0.14q-2.91-1.92-6.03-3.5l-0.1-0.05c-4.1-1.69-8.47-2.65-12.9-2.85l-2.55-0.08h-43.3c-1.89 0-3.42 1.53-3.42 3.42v15.72c0 1.89 1.53 3.42 3.42 3.43l43.09 0.03c3.44-0.06 6.63 1.81 8.25 4.85 0.61 1.21 0.93 2.55 0.92 3.9-0.03 2.01-0.64 3.97-1.75 5.64-1.8 2.77-4.9 4.41-8.2 4.36h-24.93c-1.89 0-3.42 1.54-3.42 3.43v15.57c0 1.89 1.53 3.42 3.41 3.43l11.8 0.08h0.11l13.81 0.01c3.45-0.08 6.65 1.8 8.25 4.85 0.61 1.21 0.93 2.55 0.92 3.9-0.03 2.01-0.64 3.97-1.75 5.64-1.79 2.73-4.84 4.37-8.1 4.36h-42.67c-1.73 0.17-3.06 1.63-3.07 3.37v15.68c0 1.89 1.53 3.42 3.42 3.43h45.77c4.46-0.16 8.84-1.19 12.91-3.03q2.1-0.93 4.04-2.17l0.06-0.05q0.63-0.41 1.25-0.86 0.57-0.41 1.09-0.83l0.7-0.57c2.61-2.18 4.85-4.76 6.64-7.65 2.4-3.92 3.65-8.43 3.63-13.03v-6.31c0-4.3-1.17-8.51-3.38-12.19"/>
		</g>
	</g>
</svg>